<?xml version="1.0" encoding="UTF-8"?>
<svg xmlns="http://www.w3.org/2000/svg" xmlns:xlink="http://www.w3.org/1999/xlink" width="200px" height="134px" viewBox="0 0 200 134">
  <!-- Generator: Sketch 51.2 (57519) - http://www.bohemiancoding.com/sketch -->
  <title>350</title>
  <desc>Created with Sketch.</desc>
  <defs></defs>
  <g id="Slideshow-(Large)" stroke="none" stroke-width="1" fill="none" fill-rule="evenodd">
    <g id="Cliemt-logos" transform="translate(-617.000000, -168.000000)">
      <g id="350" transform="translate(617.000000, 168.000000)">
        <rect id="Rectangle" fill="#FFFFFF" x="0" y="0" width="200" height="134"></rect>
        <g id="350-Logo" opacity="0.3" transform="translate(40.000000, 41.000000)" fill="#263238" fill-rule="nonzero">
          <g id="_x33_50-logo-white">
            <g id="Group">
              <path d="M41.7737143,25.02944 C45.0514286,21.6032 46.2582857,16.91104 45.5314286,12.3152 C44.7634286,7.62304 41.6228571,3.66016 37.2891429,1.63744 C32.9965714,-0.39904 26.4,-0.30272 22.5874286,1.69248 C18.7748571,3.5776 15.7988571,8.36608 15.2091429,9.13664 C14.9622857,9.48064 15.0582857,10.05856 15.456,10.3888 C16.0868571,10.92544 19.8857143,14.3104 21.0925714,15.17728 C21.7234286,15.6176 22.2445714,15.6176 22.8205714,14.98464 C23.5885714,14.21408 25.0422857,12.56288 25.8514286,11.84736 C27.0582857,10.82912 28.5942857,10.49888 29.568,10.49888 C31.8308571,10.49888 33.7097143,11.51712 34.4365714,13.49856 C35.1085714,15.3424 34.6285714,17.70912 32.9417143,18.80992 C31.5977143,19.73184 29.184,20.11712 27.6891429,20.35104 C25.5634286,20.64 25.5222857,21.50688 25.4262857,22.2912 C25.2754286,23.63968 25.2342857,26.3504 25.3302857,28.0016 C25.4262857,29.25376 26.9211429,29.69408 28.3611429,29.88672 C29.8011429,30.1344 30.9668571,30.07936 32.2148571,30.56096 C34.3405714,31.33152 35.4925714,33.94592 35.1497143,36.12 C34.8068571,38.34912 32.7908571,39.79392 30.624,40.08288 C28.3062857,40.37184 26.2902857,38.872 24.8365714,37.23456 C24.1097143,36.40896 22.8068571,34.90912 22.2857143,34.28992 C21.9017143,33.8496 21.2708571,34.04224 20.7497143,34.34496 C19.9268571,34.82656 14.7702857,38.40416 14.0571429,38.9408 C13.6731429,39.32608 13.5771429,39.67008 13.8651429,40.09664 C14.88,41.78912 16.0868571,43.6192 17.5268571,45.31168 C19.0217143,47.10048 20.9965714,48.504 23.1222857,49.52224 C29.8697143,52.71456 38.496,50.67808 43.0765714,44.83008 C47.7531429,38.91328 47.2594286,30.29952 41.7737143,25.02944 Z" id="Shape"></path>
              <path d="M103.172571,0.08256 C93.9702857,0.08256 86.4548571,7.48544 86.4548571,16.56704 L86.4548571,35.03296 C86.4548571,44.12832 93.9702857,51.51744 103.172571,51.51744 C112.374857,51.51744 119.890286,44.11456 119.890286,35.03296 L119.890286,16.5808 C119.890286,7.48544 112.374857,0.08256 103.172571,0.08256 Z M97.7691429,16.04416 C97.7691429,13.1408 100.182857,10.7328 103.172571,10.7328 C106.162286,10.7328 108.576,13.09952 108.576,16.04416 L108.576,36.0512 C108.576,38.95456 106.162286,41.36256 103.172571,41.36256 C100.237714,41.36256 97.7691429,38.99584 97.7691429,36.0512 L97.7691429,16.04416 Z" id="Shape"></path>
              <path d="M67.0217143,17.6128 C64.224,17.6128 61.9885714,18.46592 60.4662857,19.42912 C60.6171429,18.21824 61.4811429,11.54464 61.632,10.27872 C61.44,10.27872 75.6342857,10.27872 77.7051429,10.27872 C78.24,10.27872 78.6651429,9.93472 78.72,9.45312 C78.816,7.912 78.72,3.21984 78.72,1.27968 C78.72,0.64672 78.4731429,0.35776 77.7051429,0.35776 C72.5074286,0.35776 59.9314286,0.30272 54.7337143,0.30272 C53.4857143,0.30272 53.3348571,1.1696 53.1977143,2.09152 C52.7177143,5.2288 49.7965714,26.58432 49.7005714,27.21728 C49.6457143,27.85024 49.7554286,28.08416 50.3725714,28.46944 C52.0045714,29.24 55.3508571,30.46464 56.1188571,30.80864 C56.9828571,31.19392 57.4628571,31.5792 58.2857143,30.65728 C60.4525714,28.29056 62.1805714,26.94208 64.8822857,26.94208 C69.3668571,26.94208 72.0274286,29.584 72,33.712 C71.9725714,37.84 68.9005714,40.26176 65.1565714,40.26176 C62.1394286,40.26176 60.768,39.43616 58.7657143,37.93632 C57.8468571,37.26208 56.64,36.34016 55.872,35.61088 C55.1451429,34.97792 54.6651429,35.2256 53.6502857,36.28512 C52.2514286,37.72992 50.1805714,40.20672 48.8365714,41.5552 C48.1645714,42.22944 48.1097143,42.71104 48.7817143,43.44032 C50.3177143,45.1328 51.9085714,46.48128 53.9794286,47.93984 C57.2434286,50.21024 61.5497143,51.29728 65.6914286,51.21472 C74.5371429,51.21472 82.9988571,44.66496 82.9988571,34.30368 C83.0125714,25.1808 77.376,17.6128 67.0217143,17.6128 Z" id="Shape"></path>
              <path d="M18.0617143,27.74016 C18.0617143,26.0064 18.0617143,22.27744 18.0617143,21.89216 C18.0617143,21.1216 17.6777143,20.54368 17.1017143,20.54368 C16.7177143,20.54368 11.1771429,20.54368 11.1771429,20.54368 L11.1771429,13.87008 C11.1771429,13.33344 10.7931429,12.81056 10.2582857,12.6592 C9.72342857,12.50784 9.10628571,12.71424 8.76342857,13.1408 L0.384,24.06624 C0.0411428571,24.50656 0.0411428571,25.08448 0.384,25.51104 L8.76342857,36.49152 C9.01028571,36.83552 9.43542857,37.02816 9.81942857,37.02816 C9.97028571,37.02816 10.1074286,37.02816 10.2034286,36.97312 C10.7382857,36.82176 11.1222857,36.29888 11.1222857,35.76224 L11.1222857,29.24 C11.1222857,29.24 15.936,29.24 16.5668571,29.24 C17.7325714,29.24 18.0617143,28.56576 18.0617143,27.74016 Z" id="Shape"></path>
            </g>
          </g>
        </g>
      </g>
    </g>
  </g>
</svg>
