<?xml version="1.0" encoding="UTF-8"?>
<svg xmlns="http://www.w3.org/2000/svg" xmlns:xlink="http://www.w3.org/1999/xlink" width="200px" height="134px" viewBox="0 0 200 134">
  <!-- Generator: Sketch 51.2 (57519) - http://www.bohemiancoding.com/sketch -->
  <title>AFL</title>
  <desc>Created with Sketch.</desc>
  <defs></defs>
  <g id="Slideshow-(Large)" stroke="none" stroke-width="1" fill="none" fill-rule="evenodd">
    <g id="Cliemt-logos" transform="translate(-730.000000, -340.000000)">
      <g id="AFL" transform="translate(730.000000, 340.000000)">
        <rect id="Rectangle" fill="#FFFFFF" x="0" y="0" width="200" height="134"></rect>
        <g opacity="0.3" transform="translate(35.000000, 30.000000)">
          <path d="M31.830904,6.05271186 C41.7461582,2.78728814 53.3264407,0.911468927 65.6977401,0.911468927 C70.1860452,0.911468927 74.5663842,1.15824859 78.8042373,1.62536723 C107.540847,5.16694915 129.062825,19.6035593 129.062825,36.7635593 C129.062825,56.6814689 100.423164,72.7368362 65.1013559,72.7368362 C29.779548,72.7368362 1.13988701,56.6814689 1.13988701,36.7635593 C1.13988701,23.7966102 13.4267232,12.3845198 31.830904,6.05271186" id="Fill-2" fill="#FFFFFE"></path>
          <path d="M1.8559887,37.7293785 C1.8559887,17.9326554 30.3759322,1.87728814 65.6977401,1.87728814 C93.4391525,1.87728814 117.05435,11.7822599 125.914915,25.6239548 C127.95452,29.1354237 129.062825,32.8782486 129.062825,36.7635593 C129.062825,56.6814689 100.423164,72.7368362 65.1013559,72.7368362 C39.2078531,72.7368362 16.9058757,64.1098305 6.84446328,51.6570056 C3.63118644,47.3750847 1.8559887,42.6686441 1.8559887,37.7293785" id="Fill-3" fill="#131414"></path>
          <path d="M71.0681356,57.5261017 L41.9510734,57.5261017 L40.8772881,52.2151977 L29.6598305,52.2151977 L28.1086441,56.440565 C36.820113,63.4414689 50.4231073,67.9077401 65.6977401,67.9077401 C80.1365537,67.9077401 93.0249153,63.9247458 101.855367,57.6472881 L87.5355367,57.6472881 L85.7456497,33.1419209 L82.0461582,33.1419209 L82.6425424,45.5756497 L71.0681356,45.5756497 L71.0681356,57.5261017" id="Fill-4" fill="#131414"></path>
          <path d="M28.7057627,18.5356497 L47.3207345,18.5356497 L53.7641808,38.4535593 L54.3612994,18.5356497 L102.690452,18.5356497 C97.2010734,14.3110169 89.9218079,11.0514689 81.449774,9.12056497 L81.449774,12.3793785 L76.5567797,12.3793785 L76.5567797,8.27519774 C75.2442938,8.03355932 73.9310734,7.91310734 72.619322,7.7919209 L72.619322,15.1556497 L67.7263277,15.1556497 L67.7263277,7.55101695 C67.010226,7.55101695 66.4138418,7.55101695 65.6977401,7.55101695 C65.1013559,7.55101695 64.3852542,7.55101695 63.7888701,7.55101695 L63.7888701,15.1556497 L58.8958757,15.1556497 L58.8958757,7.7919209 C57.4636723,7.91310734 56.1511864,8.03355932 54.9584181,8.27519774 L54.9584181,12.3793785 L49.9464407,12.3793785 L49.9464407,9.12056497 C41.5926554,11.0514689 34.3141243,14.3110169 28.7057627,18.5356497" id="Fill-5" fill="#131414"></path>
          <path d="M101.97435,24.5714689 L104.361356,43.0410169 L112.953107,43.0410169 C113.430508,41.3510169 113.668475,39.5398305 113.668475,37.7293785 C113.668475,32.0556497 111.16322,26.7447458 106.867345,22.2784746 L101.97435,24.5714689" id="Fill-6" fill="#131414"></path>
          <path d="M28.1086441,24.0889266 L24.4091525,22.3989266 C20.2329944,26.8651977 17.8459887,32.1768362 17.8459887,37.7293785 C17.8459887,38.6951977 17.8459887,39.5398305 17.9657062,40.5056497 L28.1086441,24.0889266" id="Fill-7" fill="#131414"></path>
          <path d="M119.277571,53.3014689 L89.8020904,53.3014689 L87.1771186,20.4672881 L105.076723,20.4672881 L95.8885876,24.4502825 L99.5880791,24.4502825 L102.213051,45.0931073 L117.248983,45.0931073 L119.277571,53.3014689 Z M79.5401695,33.9872881 L79.8978531,41.230565 L67.9650282,41.230565 L67.9650282,53.3014689 L43.860678,53.3014689 L42.6671751,48.1110169 L28.2283616,48.1110169 L25.6026554,53.3014689 L12.7150282,53.3014689 L30.3759322,24.4502825 L34.4331073,24.4502825 L25.8413559,20.4672881 L45.4111299,20.4672881 L55.3161017,50.1631073 L55.6737853,50.1631073 L56.6285876,20.4672881 L84.7908475,20.4672881 L85.3872316,28.5551977 L67.9650282,28.5551977 L67.9650282,33.9872881 L79.5401695,33.9872881 Z" id="Fill-8" fill="#FFFFFE"></path>
          <polyline id="Fill-9" fill="#131414" points="38.3712994 29.0377401 37.6551977 29.0377401 31.2110169 42.0751977 41.3546893 42.0751977 38.3712994 29.0377401"></polyline>
          <path d="M65.6977401,4.29146893 C36.7003955,4.29146893 13.1924294,19.2598305 13.1924294,37.7293785 C13.1924294,40.5056497 13.6698305,43.2819209 14.7436158,45.8172881 L17.2496045,41.7131073 C17.010904,40.3851977 16.8911864,39.0572881 16.8911864,37.7293785 C16.8911864,23.2435593 31.569435,11.0514689 51.7363277,7.06774011 L51.7363277,10.5689266 L53.1677966,10.5689266 L53.1677966,6.82683616 C55.5548023,6.34355932 58.060791,6.1019209 60.5667797,5.86101695 L60.5667797,13.3451977 L61.9982486,13.3451977 L61.9982486,5.86101695 C63.1917514,5.73983051 64.5042373,5.73983051 65.6977401,5.73983051 C67.010226,5.73983051 68.2037288,5.73983051 69.5162147,5.86101695 L69.5162147,13.3451977 L70.829435,13.3451977 L70.829435,5.86101695 C73.4544068,6.1019209 75.840678,6.34355932 78.3466667,6.82683616 L78.3466667,10.5689266 L79.7788701,10.5689266 L79.7788701,7.06774011 C99.9457627,11.0514689 114.623277,23.2435593 114.623277,37.7293785 C114.623277,39.5398305 114.384576,41.3510169 113.907175,43.0410169 L117.606667,43.0410169 C118.084068,41.3510169 118.322768,39.5398305 118.322768,37.7293785 C118.322768,19.2598305 94.8148023,4.29146893 65.6977401,4.29146893" id="Fill-10" fill="#FFFFFE"></path>
          <path d="M65.6977401,69.7189266 C50.1851412,69.7189266 36.4616949,65.0110169 27.5122599,57.6472881 L23.5740678,57.6472881 C33.1206215,65.8556497 48.3945198,71.0468362 65.6977401,71.0468362 C83.0009605,71.0468362 98.3945763,65.7351977 107.94113,57.6472881 L104.002938,57.6472881 C95.0535028,65.0110169 81.210339,69.7189266 65.6977401,69.7189266" id="Fill-11" fill="#FFFFFE"></path>
          <path d="M129.5461,36.7620534 C129.5461,56.9218085 100.667303,73.2187802 65.1042812,73.2187802 C29.5419901,73.2187802 0.663192576,56.9218085 0.663192576,36.7620534 C0.663192576,16.603037 29.5419901,0.306065243 65.1042812,0.306065243 C100.667303,0.306065243 129.5461,16.603037 129.5461,36.7620534 Z" id="Stroke-12" stroke="#FFFFFE" stroke-width="2.635"></path>
        </g>
      </g>
    </g>
  </g>
</svg>
