<?xml version="1.0" encoding="UTF-8"?>
<svg xmlns="http://www.w3.org/2000/svg" xmlns:xlink="http://www.w3.org/1999/xlink" width="200px" height="134px" viewBox="0 0 200 134">
  <!-- Generator: Sketch 51.2 (57519) - http://www.bohemiancoding.com/sketch -->
  <title>Pearson</title>
  <desc>Created with Sketch.</desc>
  <defs></defs>
  <g id="Slideshow-(Large)" stroke="none" stroke-width="1" fill="none" fill-rule="evenodd">
    <g id="Cliemt-logos" transform="translate(-153.000000, -168.000000)">
      <g id="Pearson" transform="translate(153.000000, 168.000000)">
        <rect id="Rectangle" fill="#FFFFFF" x="0" y="0" width="200" height="134"></rect>
        <g id="Pearson-Logo" opacity="0.4" transform="translate(10.000000, 36.000000)">
          <g id="Pearson-Logo-/-White">
            <g id="Pearson" transform="translate(59.392393, 16.381688)" fill="#424D52">
              <path d="M47.8598183,21.3865521 C47.4308161,21.9812525 46.0288109,23.7572071 44.2858875,23.7572071 C41.9280066,23.7572071 41.4329414,22.1042658 41.4329414,20.7185325 C41.4329414,18.4383045 43.1807583,17.3841369 47.8598183,16.2297664 L47.8598183,21.3865521 Z M53.6847872,24.1792 C53.617093,24.0024192 53.4327688,23.9014016 53.2517071,23.9445785 L53.1946155,23.9592423 C52.6571394,24.0749237 52.2436335,24.0423374 51.9540978,23.8476341 C51.5430387,23.5690211 51.3432182,22.942549 51.3432182,21.932373 L51.3432182,12.7919093 C51.3432182,9.2220776 49.2112568,7.41190735 45.0076878,7.41190735 C41.2420925,7.41190735 38.2920907,9.19193525 38.2920907,11.4648313 C38.2920907,12.633051 39.0049195,13.4778514 40.0570351,13.6049381 C40.745396,13.6872185 41.4011332,13.3760192 41.8774399,12.8741898 C42.8031385,11.8982294 42.6832462,10.7381563 41.5609896,9.49254409 C42.2248827,8.7984554 43.400153,8.38786773 44.7418043,8.38786773 C46.9267793,8.38786773 47.8598183,9.68235942 47.8598183,12.7161461 L47.8598183,15.0257018 C47.3476256,15.1845601 46.8680566,15.3344572 45.9912936,15.539751 C44.2214556,15.9552266 41.7942493,16.5067502 39.9632419,17.5177408 C38.4511315,18.3446188 37.6844736,19.6513304 37.6844736,21.4012159 C37.6844736,23.3058865 38.9364096,25.5299031 42.463036,25.5299031 C44.4384035,25.5299031 46.2082414,24.5930463 48.0245682,22.5865434 C48.1811622,24.6728828 48.9722879,25.4541399 50.892195,25.4541399 C51.8154469,25.4541399 52.5543746,25.2390701 53.4319533,24.8146333 C53.6701066,24.6997665 53.7834741,24.4244121 53.6847872,24.1792 Z" id="Fill-2"></path>
              <path d="M7.4583231,22.0642903 L7.4583231,15.2924128 L9.97584953,15.2924128 C13.7315962,15.2924128 16.589895,14.4698095 18.4693795,12.8454599 C20.4342585,11.1476934 20.8467301,8.99691104 20.8467301,7.49186398 C20.8467301,1.29981337 15.0777679,0.000834283294 10.2384779,0.000834283294 L10.2578125,0 L0.441473435,0 C0.219931109,0 0.038669206,0.187713741 0.038669206,0.417141647 L0.038669206,0.445507279 L0.038669206,0.436330163 C0.038669206,0.649072403 0.163538517,0.838454711 0.356884547,0.91187164 C1.23096972,1.24391639 3.60590346,0.775883463 3.60590346,3.41305296 L3.60590346,22.0609531 C3.60590346,23.4174978 3.02505976,24.3735864 0.369774282,24.6338828 C0.159510475,24.6547399 0,24.8332765 0,25.0493559 L0,25.1127614 C0,25.3430236 0.181261903,25.5299031 0.403609837,25.5299031 L10.8902151,25.5299031 C11.1125631,25.5299031 11.293825,25.3430236 11.293825,25.1127614 L11.293825,25.0560302 C11.293825,24.8399508 11.1286752,24.6572428 10.9184114,24.6405571 C8.03352754,24.4019521 7.45510067,23.4758976 7.45510067,22.0609531 L7.45510067,15.304927 M16.5069173,7.41427563 C16.5069173,11.7216803 15.4813777,14.0952163 10.2384779,14.0952163 L7.4583231,14.0952163 L7.4583231,1.07789402 L10.3512631,1.07789402 C15.7746192,1.07789402 16.5069173,4.28070758 16.5069173,7.41427563" id="Fill-4"></path>
              <path d="M76.4884772,14.4152521 C76.4869056,14.4144452 76.4861198,14.4144452 76.485334,14.4144452 C73.3923504,13.523674 72.1876899,12.6224137 72.1876899,11.1991162 C72.1876899,9.57733168 73.4410712,8.40093276 75.1683013,8.40093276 C77.2004293,8.40093276 78.0703309,9.39740236 80.2148309,13.0790953 L80.2431204,13.1283136 C80.2541218,13.1468713 80.2729815,13.1589742 80.2941986,13.1589742 L80.5880949,13.1589742 C80.804981,13.1589742 80.9810044,12.9774312 80.9810044,12.7547384 L80.9810044,7.46417066 C80.9810044,7.43028262 80.9542866,7.40365631 80.922068,7.40365631 L80.5338734,7.40365631 C80.4160006,7.40365631 80.3052001,7.45690894 80.2305473,7.55131132 L79.5460989,8.40658077 C78.681698,7.91681798 77.2742962,7.40365631 75.8621795,7.40365631 C72.3102777,7.40365631 69.8294471,9.65721062 69.8294471,12.8846425 C69.8294471,15.9135873 71.7853506,17.0488365 75.1635864,17.9855986 C78.4451665,18.9078373 79.6081786,19.8671914 79.6081786,21.6511544 C79.6081786,23.6327975 77.7371436,24.5243756 76.4091095,24.5243756 C73.9384946,24.5243756 72.8933554,23.5811586 70.5256827,19.2128296 L70.4973933,19.1611907 C70.4871776,19.1418261 70.4675321,19.1297232 70.446315,19.1297232 L70.1500613,19.1297232 C69.9331752,19.1297232 69.756366,19.3104594 69.756366,19.5331522 L69.756366,25.4611377 C69.756366,25.4942189 69.7830838,25.521652 69.8160882,25.521652 L70.2176417,25.521652 C70.3213698,25.521652 70.4227405,25.4780817 70.4958216,25.4038508 L71.5786802,24.2911936 C72.8454204,25.0988585 74.74003,25.521652 75.9714084,25.521652 C77.8188688,25.521652 79.3378569,24.9205429 80.3641365,23.78368 C81.2788298,22.7702664 81.7833256,21.334866 81.7833256,19.7405147 C81.7833256,16.9794467 80.3484201,15.5359778 76.4884772,14.4152521" id="Fill-6"></path>
              <path d="M57.3335177,23.3728671 C57.3335177,24.3038703 57.1071833,24.6087266 55.6902359,24.7015804 C55.4851204,24.7155496 55.3240144,24.8946834 55.3240144,25.1107945 C55.3240144,25.3367662 55.5000522,25.521652 55.7161701,25.521652 L62.7144598,25.521652 C62.9274341,25.521652 63.1011143,25.340053 63.1011143,25.1181899 C63.1011143,24.898792 62.9376506,24.7188364 62.7286057,24.7081541 C61.1089004,24.6268043 60.6892388,24.3523515 60.6892388,23.3720454 L60.6892388,12.6420899 C61.8413436,10.6395703 62.6696644,9.59106185 64.0669647,9.27387983 C63.9993788,9.52696807 63.9553693,9.83100265 63.9553693,10.0766955 C63.9553693,11.3799356 64.8261279,12.2903959 66.0725386,12.2903959 C67.2969446,12.2903959 68.1527713,11.3799356 68.1527713,10.0766955 C68.1527713,8.84330113 67.4163988,7.40365631 65.3408813,7.40365631 C63.6386584,7.40365631 62.0126661,8.42340472 60.6161517,10.8647202 L60.6161517,8.10457927 C60.6161517,7.822731 60.3945326,7.59675935 60.1257606,7.60415479 L55.7161701,7.72741205 C55.5024099,7.73398577 55.3350167,7.91311966 55.3350167,8.13662616 L55.3350167,8.19578965 C55.3350167,8.39875327 55.4756898,8.57213515 55.6619441,8.59925175 C57.1323316,8.81782796 57.3350894,9.54833266 57.3335177,10.305954 L57.3335177,23.3728671 Z" id="Fill-8"></path>
              <path d="M106.859028,7.53327744 C106.963384,7.53327744 107.062121,7.57455979 107.137578,7.64886801 C107.215444,7.72730446 107.258792,7.83216162 107.259595,7.94362395 L107.276452,11.0191587 C107.276452,11.0191587 108.743058,7.41190735 113.504909,7.41190735 L113.546652,7.41190735 C116.51438,7.41190735 118.216991,9.35878275 118.216991,12.7521915 L118.216991,23.3716621 C118.216991,24.30712 118.44818,24.613435 119.894717,24.7075588 C120.105035,24.7207691 120.269596,24.9007601 120.269596,25.1187309 C120.269596,25.3449582 120.089783,25.5299031 119.869029,25.5299031 L113.447112,25.5299031 C113.225556,25.5299031 113.045742,25.3449582 113.045742,25.1170796 C113.045742,24.8966319 113.20629,24.7166409 113.411792,24.6984766 C114.578172,24.5960964 114.764408,24.293084 114.764408,23.3716621 L114.764408,13.7875528 C114.764408,10.6236738 113.890224,9.39098298 111.644962,9.39098298 C110.128586,9.39098298 108.885945,10.7533004 108.110499,11.8959957 C108.110499,11.8959957 107.714748,12.4070711 107.285283,13.3672985 L107.332644,23.3708364 C107.332644,24.2906071 107.514063,24.5936195 108.647532,24.697651 C108.85223,24.7158152 109.012778,24.8958063 109.012778,25.1079975 C109.012778,25.3449582 108.832965,25.5299031 108.612211,25.5299031 L102.229628,25.5299031 C102.008072,25.5299031 101.828258,25.3449582 101.828258,25.1179053 C101.828258,24.9007601 101.993623,24.7207691 102.203138,24.7067331 C103.650477,24.6126094 103.881666,24.3062944 103.881666,23.3716621 L103.881666,10.2628661 C103.881666,9.49749143 103.673757,8.7593631 102.164606,8.53891537 C101.973554,8.51084338 101.828258,8.33580624 101.828258,8.13187145 L101.828258,8.07159923 C101.828258,7.84619762 102.000847,7.6645553 102.219193,7.65877577 L106.859028,7.53327744 Z" id="Fill-10"></path>
              <path d="M92.284465,8.00733057 C90.1613057,8.00733057 87.7254455,8.94452508 87.7254455,16.2559599 C87.7254455,21.8313613 89.3266347,24.5416488 92.620418,24.5416488 C95.7730851,24.5416488 97.1786357,21.9861878 97.1786357,16.2559599 C97.1786357,10.7052648 95.5774465,8.00733057 92.284465,8.00733057 M92.4704819,25.528256 C87.5578698,25.528256 83.8535663,21.5752387 83.8535663,16.3317261 C83.8535663,11.1977449 87.7190311,7.02072335 92.4704819,7.02072335 C97.2820676,7.02072335 101.050515,11.0437419 101.050515,16.1785466 C101.050515,21.953246 96.5973327,25.528256 92.4704819,25.528256" id="Fill-13"></path>
              <path d="M24.3649365,14.0982791 C24.7457902,10.2671466 26.2010523,8.1662826 28.4877782,8.1662826 C29.631943,8.1662826 30.4802446,8.49158297 31.0799889,9.16112527 C31.9042366,10.0810253 32.2522166,11.7421161 32.1151093,14.0982791 L24.3649365,14.0982791 Z M28.7483624,7.14838065 C24.204577,7.14838065 20.5090932,11.3739914 20.5090932,16.5672678 C20.5090932,21.8256043 23.9736594,25.641913 28.7483624,25.641913 C32.7605561,25.641913 34.7121308,23.1795127 35.8314398,21.328183 C35.941286,21.1453559 35.8931782,20.9040571 35.7215936,20.7780547 L35.6686749,20.7393481 C35.4954867,20.6133457 35.2549475,20.6487581 35.1210474,20.8208791 C33.6457403,22.720798 32.3548467,23.8202309 30.1258501,23.8202309 C27.3051272,23.8202309 24.2919729,21.8247807 24.2919729,16.2230259 L24.2919729,16.1818486 C24.2871621,15.9339615 24.2935765,15.5954844 24.3015945,15.279243 L35.8402596,15.279243 C35.8723315,15.279243 35.8971872,15.2537131 35.9003944,15.2215948 L35.9068087,15.1260636 C36.0695736,12.8283723 35.4369555,10.7653914 34.1252151,9.31595178 C32.8415376,7.89780684 30.9821697,7.14838065 28.7483624,7.14838065 Z" id="Fill-15"></path>
            </g>
            <g id="Logo">
              <path d="M37.9036746,3.69831933 C49.0477232,10.2084634 51.6422847,24.8072629 43.8878414,39.5762305 C37.0738575,52.560054 22.193261,58.105102 11.1061141,51.4952881 C0.0158060402,44.8838535 -2.14804086,26.4416867 2.61748025,15.8280612 C9.53736463,0.418127251 25.5907693,-3.49654862 37.9036746,3.69831933" id="Fill-17" fill="#424D52"></path>
              <path d="M23.5573223,42.1652161 C24.1713869,42.6554622 24.5420386,43.4195978 24.5475707,44.2064226 C24.5531028,44.8806122 24.2764971,45.4859244 23.7683329,45.9105342 C23.3312959,46.2743697 22.7686008,46.4664166 22.1426817,46.4664166 C21.8550117,46.4664166 21.5681321,46.4242797 21.2875749,46.3448679 C20.8039101,46.2030612 20.4127106,45.9680672 20.157443,45.6593337 C19.9306263,45.3862545 19.7757271,45.019988 19.7109224,44.5986194 C19.6073928,43.9365846 19.7662435,43.255102 20.1550721,42.6846339 C20.6197697,41.997479 21.3302512,41.5882653 22.0549581,41.5882653 C22.1877289,41.5882653 22.3220802,41.6028511 22.45248,41.6287815 C22.8365668,41.7081933 23.2174924,41.8937575 23.5573223,42.1652161 Z M37.6452458,14.8986194 C39.8264794,17.287455 40.5061391,20.9112245 40.1267941,23.8826831 C39.6929183,27.2722689 37.6902931,30.4082233 34.3575895,32.487515 C31.7148196,34.1357143 28.2438132,34.7936975 24.8273376,34.8253001 C24.8004673,35.3803721 24.6921959,37.2935474 24.6376651,37.5957983 C24.5570543,38.0422869 24.4053163,38.2829532 24.2180147,38.532533 C23.8513146,39.0227791 23.2151215,39.3396158 22.5828799,39.5243697 C22.0810381,39.6710384 21.5839381,39.7334334 21.2314634,39.7334334 C21.1721908,39.7334334 21.1137084,39.7301921 21.0568067,39.7228992 C20.6845745,39.679952 20.2728271,39.5008703 20.0175596,39.2091537 C19.7630823,38.917437 19.618457,38.5487395 19.5852644,38.1298019 L19.5568135,37.7530012 C19.4841057,37.4272509 19.0881644,20.9598439 19.165614,21.2523709 C19.2225157,19.280042 22.3291929,18.9356543 24.0149071,19.2840936 C25.7045728,19.6333433 25.2770194,21.7377551 25.2311819,24.3243097 C25.2311819,24.3243097 25.1505711,27.7268607 24.9948816,31.3214586 C27.1460837,31.2347539 28.8547166,30.6067527 30.4534976,29.7915666 C33.6826716,28.1506603 35.3920948,25.6321729 35.3920948,21.9241297 C35.3920948,18.2152761 31.8712994,14.0623649 25.3758072,14.0623649 C18.880315,14.0623649 16.0921295,15.7421669 12.9467275,18.4097539 C12.2378266,19.0118247 11.6917279,19.6179472 11.1756607,20.0166267 C10.6588032,20.4153061 9.28683889,20.4768908 8.91934846,19.5433974 C8.47598903,18.4170468 9.30422554,17.1626651 9.79105158,16.554922 C10.5544833,15.6019808 12.4385633,13.6823229 14.5273315,12.5665066 C16.9187854,11.2861945 19.8444834,9.90783313 23.9184903,9.802491 C27.6036685,9.70687275 33.4226622,10.0131753 37.6144241,14.8670168 L37.6452458,14.8986194 Z" id="Combined-Shape" fill="#FFFFFF"></path>
            </g>
          </g>
        </g>
      </g>
    </g>
  </g>
</svg>
