<?xml version="1.0" encoding="UTF-8"?>
<svg xmlns="http://www.w3.org/2000/svg" xmlns:xlink="http://www.w3.org/1999/xlink" width="200px" height="134px" viewBox="0 0 200 134">
  <!-- Generator: Sketch 51.2 (57519) - http://www.bohemiancoding.com/sketch -->
  <title>PeterMac</title>
  <desc>Created with Sketch.</desc>
  <defs></defs>
  <g id="Slideshow-(Large)" stroke="none" stroke-width="1" fill="none" fill-rule="evenodd">
    <g id="Cliemt-logos" transform="translate(-849.000000, -168.000000)">
      <g id="PeterMac" transform="translate(849.000000, 168.000000)">
        <rect id="Rectangle" fill="#FFFFFF" x="0" y="0" width="200" height="134"></rect>
        <g id="Peter-Mac-Logo" transform="translate(20.000000, 43.000000)" fill="#C6CACB" fill-rule="nonzero">
          <g id="Group" transform="translate(53.471718, 6.983312)">
            <path d="M7.23087206,11.422038 L4.3986017,11.422038 L4.3986017,16.2877437 L0.665154403,16.2877437 L0.665154403,0.0206173972 L7.57417756,0.0206173972 C11.6080172,0.0206173972 14.0540688,2.32976588 14.0540688,5.64916682 L14.0540688,5.69040161 C14.0540688,9.46338529 11.0072325,11.4014206 7.23087206,11.422038 Z M10.299165,5.71101901 C10.299165,4.10286203 9.1405089,3.23693135 7.27378525,3.23693135 L4.3986017,3.23693135 L4.3986017,8.22634146 L7.35961163,8.22634146 C9.22633527,8.22634146 10.3206216,7.15423681 10.3206216,5.75225381 L10.299165,5.71101901 Z" id="Shape"></path>
            <path d="M27.0996778,11.2983336 L18.0664519,11.2983336 C18.431214,12.9064906 19.58987,13.7311865 21.2420277,13.7311865 C22.4650536,13.7311865 23.3662305,13.3600734 24.396147,12.4529079 L26.4988932,14.2466214 C25.2973239,15.6898392 23.5378832,16.5763873 21.1991145,16.5763873 C17.2940145,16.5763873 14.4188309,13.9579779 14.4188309,10.1437594 L14.4188309,10.0819072 C14.4188309,6.5150975 17.057992,3.5874271 20.8343524,3.5874271 C25.1685844,3.5874271 27.142591,6.82435846 27.142591,10.3499334 L27.142591,10.3911682 C27.142591,10.7416639 27.1211344,10.9478379 27.0996778,11.2983336 M20.8343524,6.43262791 C19.3109343,6.43262791 18.323931,7.48411517 18.0235387,9.09227214 L23.5593398,9.09227214 C23.3447739,7.50473256 22.3792272,6.43262791 20.8343524,6.43262791" id="Shape"></path>
            <path d="M32.8071317,16.4939177 C30.5541894,16.4939177 29.0307712,15.627987 29.0307712,12.7415514 L29.0307712,6.86559325 L27.4858965,6.86559325 L27.4858965,3.83483587 L29.0307712,3.83483587 L29.0307712,0.639139312 L32.6998487,0.639139312 L32.6998487,3.83483587 L35.746685,3.83483587 L35.746685,6.86559325 L32.6998487,6.86559325 L32.6998487,12.1848817 C32.6998487,12.9889602 33.0646108,13.4013081 33.8799614,13.4013081 C34.5236592,13.4013081 35.1459004,13.2569864 35.7037719,12.9683428 L35.7037719,15.8135436 C34.8240515,16.3083611 33.8155916,16.5557699 32.8071317,16.5351525" id="Shape"></path>
            <path d="M49.1570561,11.2983336 L40.1238301,11.2983336 C40.4885922,12.9064906 41.6472483,13.7311865 43.299406,13.7311865 C44.5224318,13.7311865 45.4236088,13.3600734 46.4535253,12.4529079 L48.5562715,14.2466214 C47.3547022,15.6898392 45.5952615,16.5763873 43.2564928,16.5763873 C39.3513928,16.5763873 36.4762092,13.9579779 36.4762092,10.1437594 L36.4762092,10.0819072 C36.4762092,6.5150975 39.1153702,3.5874271 42.8917307,3.5874271 C47.2259626,3.5874271 49.1999693,6.82435846 49.1999693,10.3499334 L49.1999693,10.3911682 C49.1999693,10.7416639 49.1785127,10.9478379 49.1570561,11.2983336 M42.8917307,6.43262791 C41.3683126,6.43262791 40.3813093,7.48411517 40.080917,9.09227214 L45.6167181,9.09227214 C45.4021522,7.50473256 44.4366055,6.43262791 42.8917307,6.43262791" id="Shape"></path>
            <path d="M58.1044556,7.29855859 C55.658404,7.29855859 54.1564424,8.721159 54.1564424,11.6900642 L54.1564424,16.2877437 L50.4873649,16.2877437 L50.4873649,3.83483587 L54.1564424,3.83483587 L54.1564424,6.35015832 C54.9074232,4.63891436 56.1089924,3.50495752 58.297565,3.6080445 L58.297565,7.29855859 C58.297565,7.29855859 58.1044556,7.29855859 58.1044556,7.29855859 Z" id="Shape"></path>
            <polygon id="Shape" points="75.6988624 16.2877437 75.6988624 5.66978422 70.9354986 12.6178471 70.8282157 12.6178471 66.1077651 5.73163641 66.1077651 16.2877437 62.4601441 16.2877437 62.4601441 0.0206173972 66.4725272 0.0206173972 70.9354986 6.90682805 75.3770135 0.0206173972 79.3893965 0.0206173972 79.3893965 16.2877437"></polygon>
            <path d="M88.9161241,16.2877437 L88.9161241,14.9476129 C88.0149472,15.8960132 86.7919214,16.5351525 84.9895675,16.5351525 C82.5435158,16.5351525 80.5480526,15.1950217 80.5480526,12.720934 L80.5480526,12.6590819 C80.5480526,9.93758543 82.693712,8.6799242 85.7834615,8.6799242 C86.8562911,8.6799242 87.9505774,8.84486338 88.9590373,9.19535913 L88.9590373,8.98918516 C88.9590373,7.52534996 88.0149472,6.70065407 86.1696801,6.70065407 C84.9466543,6.70065407 83.7236285,6.92744544 82.586429,7.38102818 L81.6637955,4.68014915 C83.2301268,3.99977505 84.9466543,3.6492793 86.6846384,3.69051409 C90.6970214,3.69051409 92.4779187,5.69040161 92.4779187,9.05103735 L92.4779187,16.2877437 L88.9161241,16.2877437 Z M88.9804939,11.2570988 C88.2509697,10.9478379 87.4570758,10.7828987 86.6417252,10.7828987 C85.0753939,10.7828987 84.1098471,11.3808032 84.1098471,12.4941427 L84.1098471,12.5766123 C84.1098471,13.5250125 84.9251977,14.0816823 86.126767,14.0816823 C87.8432944,14.0816823 89.0019505,13.1745168 89.0019505,11.8962382 L89.0019505,11.2777162 L88.9804939,11.2570988 Z" id="Shape"></path>
            <path d="M100.481228,16.5763873 C96.5761281,16.5763873 93.7224011,13.6899517 93.7224011,10.1437594 L93.7224011,10.0819072 C93.7224011,6.5150975 96.5546715,3.5874271 100.524141,3.5874271 C102.970193,3.5874271 104.493611,4.3708882 105.69518,5.66978422 L103.463695,8.02016749 C102.648344,7.17485421 101.811537,6.63880188 100.502685,6.63880188 C98.6574177,6.63880188 97.3485654,8.20572407 97.3485654,10.0406724 L97.3485654,10.0819072 C97.3485654,11.9993251 98.6359611,13.5250125 100.631424,13.5250125 C101.85445,13.5250125 102.712714,13.0095776 103.613891,12.2054991 L105.75955,14.2878562 C104.493611,15.6073696 103.056019,16.5763873 100.481228,16.5763873" id="Shape"></path>
            <path d="M2.53187805,25.8954508 L1.54487474,25.8954508 L1.54487474,27.4211382 L0.665154403,27.4211382 L0.665154403,22.6585195 L2.61770443,22.6585195 C3.77636048,22.6585195 4.50588467,23.2770414 4.50588467,24.2666764 C4.50588467,25.2563115 3.60470773,25.8954508 2.53187805,25.8954508 M2.55333465,23.4213632 L1.54487474,23.4213632 L1.54487474,25.1532245 L2.55333465,25.1532245 C3.21848905,25.1532245 3.62616433,24.8027288 3.62616433,24.2872938 C3.62616433,23.7718589 3.19703246,23.4213632 2.55333465,23.4213632" id="Shape"></path>
            <path d="M6.7802836,26.8438511 C7.16650228,26.8438511 7.53126437,26.6789119 7.7887435,26.4108858 L8.28224515,26.8438511 C7.59563416,27.6479296 6.37260832,27.7510166 5.53580116,27.0912599 C5.0852127,26.7407641 4.82773357,26.2047118 4.82773357,25.6480421 C4.82773357,24.6171722 5.57871435,23.7718589 6.65154403,23.7718589 C7.72437372,23.7718589 8.4538979,24.6790244 8.4538979,25.7098942 C8.4538979,25.7923638 8.4538979,25.854216 8.43244131,25.9366856 L5.70745391,25.9366856 C5.77182369,26.4521205 6.22241216,26.8644685 6.7802836,26.8438511 Z M7.61709075,25.3800159 C7.55272097,24.8439636 7.23087206,24.4316156 6.67300063,24.4316156 C6.11512919,24.4316156 5.77182369,24.8233462 5.70745391,25.3800159 L7.61709075,25.3800159 Z" id="Shape"></path>
            <path d="M10.0631424,26.3077988 C10.0202292,26.5139727 10.1704254,26.7201467 10.3849913,26.7613815 C10.4279045,26.7613815 10.4708177,26.7613815 10.5351875,26.7613815 C10.7282968,26.7613815 10.8999496,26.7201467 11.0716023,26.6376771 L11.0716023,27.3180512 C10.8355798,27.4417556 10.5781007,27.5036078 10.299165,27.5036078 C9.67692374,27.5036078 9.22633527,27.2355816 9.22633527,26.4521205 L9.22633527,24.55532 L8.75429021,24.55532 L8.75429021,23.8543285 L9.22633527,23.8543285 L9.22633527,22.8646934 L10.084599,22.8646934 L10.084599,23.8543285 L11.0930589,23.8543285 L11.0930589,24.55532 L10.084599,24.55532 L10.084599,26.3077988 L10.0631424,26.3077988 Z" id="Shape"></path>
            <path d="M13.3245447,26.8438511 C13.7107633,26.8438511 14.0755254,26.6789119 14.3330046,26.4108858 L14.8265062,26.8438511 C14.4617441,27.2974338 13.9038727,27.5448426 13.3030881,27.5242252 C12.2731716,27.5448426 11.4149078,26.7613815 11.3934512,25.7717464 C11.3934512,25.7305116 11.3934512,25.6892769 11.3934512,25.6480421 C11.3934512,24.6171722 12.144432,23.7718589 13.2172617,23.7718589 C14.2900914,23.7718589 14.998159,24.6790244 14.998159,25.7098942 C14.998159,25.7923638 14.998159,25.854216 14.9767024,25.9366856 L12.2302584,25.9366856 C12.2946282,26.4521205 12.7452166,26.8644685 13.3030881,26.8438511 L13.3245447,26.8438511 Z M14.1398952,25.3800159 C14.0755254,24.8439636 13.7536765,24.4316156 13.1958051,24.4316156 C12.6379337,24.4316156 12.2946282,24.8233462 12.2302584,25.3800159 L14.1613518,25.3800159 L14.1398952,25.3800159 Z" id="Shape"></path>
            <path d="M16.4572073,27.4211382 L15.5989436,27.4211382 L15.5989436,23.8337111 L16.4572073,23.8337111 L16.4572073,24.6377896 C16.6932299,24.1017373 17.1223617,23.7306241 17.7875161,23.7512415 L17.7875161,24.6171722 L17.744603,24.6171722 C16.9936222,24.6171722 16.4786639,25.0913723 16.4786639,26.0397726 L16.4786639,27.4211382 L16.4572073,27.4211382 Z" id="Shape"></path>
            <polygon id="Shape" points="22.7439893 26.266564 22.7225327 26.266564 21.1776579 24.0192677 21.1776579 27.4211382 20.3193942 27.4211382 20.3193942 22.6585195 21.2420277 22.6585195 22.7439893 24.9264332 24.2674074 22.6585195 25.190041 22.6585195 25.190041 27.4211382 24.3103206 27.4211382 24.3103206 24.0192677"></polygon>
            <path d="M28.2368773,27.4211382 L28.2368773,26.9881729 C27.9364849,27.3180512 27.4858965,27.5242252 27.035308,27.5036078 C26.3272404,27.5036078 25.7049992,27.1118773 25.7049992,26.3902684 C25.7049992,25.6068073 26.348697,25.2356941 27.2284174,25.2356941 C27.5717229,25.2356941 27.9150284,25.2769289 28.2583339,25.3800159 L28.2583339,25.2975463 C28.2583339,24.8027288 27.9364849,24.5347026 27.3357003,24.5347026 C26.9709382,24.5347026 26.6061761,24.6171722 26.2628706,24.761494 L26.0268481,24.1017373 C26.4774366,23.8955633 26.9494816,23.8130937 27.4429833,23.8130937 C28.5372696,23.8130937 29.0736844,24.3697634 29.0736844,25.3387811 L29.0736844,27.4211382 L28.2154207,27.4211382 L28.2368773,27.4211382 Z M28.2583339,25.8954508 C27.9793981,25.7923638 27.7004624,25.751129 27.4000701,25.751129 C26.8636553,25.751129 26.5418064,25.957303 26.5418064,26.3284162 C26.5418064,26.6789119 26.8636553,26.8644685 27.2713305,26.8644685 C27.6790058,26.8644685 28.2583339,26.5552075 28.2583339,26.1016248 L28.2583339,25.8954508 Z" id="Shape"></path>
            <path d="M31.5626493,27.5036078 C30.4898196,27.5036078 29.6100993,26.6582945 29.6100993,25.6274247 C29.6100993,24.5965548 30.4898196,23.7512415 31.5626493,23.7512415 C32.1419773,23.7306241 32.6998487,23.9574155 33.0646108,24.3697634 L32.528196,24.9264332 C32.2921735,24.6377896 31.948868,24.4728504 31.5626493,24.4728504 C30.9404081,24.4728504 30.4898196,24.9882853 30.4898196,25.6274247 C30.4898196,26.266564 30.9404081,26.7819989 31.6055625,26.7819989 C31.9703246,26.7613815 32.3350866,26.5964423 32.5711092,26.3284162 L33.0860674,26.8232337 C32.7213053,27.2768164 32.1634339,27.5242252 31.5626493,27.5036078" id="Shape"></path>
            <path d="M36.0685339,27.5036078 C34.6523988,27.4829904 33.5151993,26.369651 33.5151993,25.0089027 C33.5366559,23.6481545 34.6953119,22.5554325 36.1114471,22.5760499 C36.8409713,22.5554325 37.5275823,22.8234586 38.0425406,23.3182762 L37.4846691,23.9367981 C37.119907,23.5656849 36.6264054,23.359511 36.0899905,23.3388936 C35.1459004,23.3388936 34.4592894,24.0811199 34.4592894,25.0295201 C34.4592894,25.9779204 35.1459004,26.7201467 36.0899905,26.7201467 C36.6907752,26.7201467 37.0984504,26.4727379 37.5061257,26.1016248 L38.0639972,26.6376771 C37.5490389,27.1943468 36.8195147,27.5036078 36.0685339,27.5036078" id="Shape"></path>
            <path d="M41.0035505,27.4211382 L41.0035505,26.9881729 C40.7031582,27.3180512 40.2525697,27.5242252 39.8019812,27.5036078 C39.0939136,27.5036078 38.4716724,27.1118773 38.4716724,26.3902684 C38.4716724,25.6068073 39.1153702,25.2356941 39.9950906,25.2356941 C40.3383961,25.2356941 40.6817016,25.2769289 41.0250071,25.3800159 L41.0250071,25.2975463 C41.0250071,24.8027288 40.7031582,24.5347026 40.1023736,24.5347026 C39.7376115,24.5347026 39.3728494,24.6171722 39.0295439,24.761494 L38.7935213,24.1017373 C39.2441098,23.8955633 39.7161549,23.8130937 40.2096565,23.8130937 C41.3039428,23.8130937 41.8618142,24.3697634 41.8618142,25.3387811 L41.8618142,27.4211382 L41.0035505,27.4211382 Z M41.0250071,25.8954508 C40.7460714,25.7923638 40.4671356,25.751129 40.1667433,25.751129 C39.6303285,25.751129 39.3084796,25.957303 39.3084796,26.3284162 C39.3084796,26.6789119 39.6303285,26.8644685 40.0380038,26.8644685 C40.4456791,26.8644685 41.0250071,26.5552075 41.0250071,26.1016248 L41.0250071,25.8954508 Z" id="Shape"></path>
            <rect id="Rectangle-path" x="42.5484252" y="22.4729629" width="1" height="4.96879271"></rect>
            <rect id="Rectangle-path" x="44.0933" y="22.4729629" width="1" height="4.96879271"></rect>
            <path d="M48.1271396,23.8337111 L48.9854033,23.8337111 L48.9854033,27.4211382 L48.1271396,27.4211382 L48.1271396,26.8644685 C47.8911171,27.256199 47.4405286,27.5036078 46.9684835,27.5036078 C46.1316764,27.5036078 45.6381747,26.9675555 45.6381747,26.1222422 L45.6381747,23.8337111 L46.4964385,23.8337111 L46.4964385,25.8748334 C46.4964385,26.4315031 46.7753742,26.7613815 47.2903324,26.7613815 C47.8052907,26.7613815 48.1271396,26.4315031 48.1271396,25.8748334 L48.1271396,23.8337111 Z" id="Shape"></path>
            <path d="M54.070616,23.7718589 C54.8859666,23.7718589 55.3794682,24.2666764 55.3794682,25.1532245 L55.3794682,27.4211382 L54.5212045,27.4211382 L54.5212045,25.3800159 C54.5212045,24.8027288 54.2422688,24.4934678 53.7702237,24.4934678 C53.2981787,24.4934678 52.9763297,24.8027288 52.9763297,25.3800159 L52.9763297,27.4211382 L52.118066,27.4211382 L52.118066,25.3800159 C52.118066,24.8233462 51.8391303,24.5140852 51.3670852,24.5140852 C50.8950402,24.5140852 50.5731913,24.864581 50.5731913,25.4212507 L50.5731913,27.4211382 L49.7149275,27.4211382 L49.7149275,23.8337111 L50.5731913,23.8337111 L50.5731913,24.3697634 C50.8092138,23.9986503 51.2383457,23.7512415 51.7103907,23.7512415 C52.1824358,23.7306241 52.6115677,23.9780329 52.8261336,24.3903808 C53.1050693,23.9986503 53.5771144,23.7512415 54.070616,23.7718589" id="Shape"></path>
            <path d="M60.6363337,27.5036078 C59.2201985,27.4829904 58.082999,26.369651 58.1044556,25.0089027 C58.1259122,23.6481545 59.2845683,22.5554325 60.6792469,22.5760499 C61.4087711,22.5554325 62.0953821,22.8234586 62.6103403,23.3182762 L62.0524689,23.9367981 C61.6877068,23.5656849 61.1942051,23.359511 60.6577903,23.3388936 C59.7137002,23.3388936 59.0270892,24.0811199 59.0270892,25.0295201 C59.0270892,25.9779204 59.7137002,26.7201467 60.6577903,26.7201467 C61.2800315,26.7201467 61.6662502,26.4727379 62.0739255,26.1016248 L62.6317969,26.6376771 C62.1168386,27.1943468 61.3873145,27.5036078 60.6148771,27.4829904" id="Shape"></path>
            <path d="M65.6142634,27.4211382 L65.6142634,26.9881729 C65.3138711,27.3180512 64.8632826,27.5242252 64.4126942,27.5036078 C63.7046266,27.5036078 63.0823854,27.1118773 63.0823854,26.3902684 C63.0823854,25.6068073 63.7260832,25.2356941 64.6058035,25.2356941 C64.949109,25.2356941 65.2924145,25.2769289 65.63572,25.3800159 L65.63572,25.2975463 C65.63572,24.8027288 65.3138711,24.5347026 64.7130865,24.5347026 C64.3483244,24.5347026 63.9835623,24.6171722 63.6402568,24.761494 L63.4042343,24.1017373 C63.8548227,23.8955633 64.3268678,23.8130937 64.8203694,23.8130937 C65.9146557,23.8130937 66.4725272,24.3697634 66.4725272,25.3387811 L66.4725272,27.4211382 L65.6142634,27.4211382 Z M65.63572,25.8954508 C65.3567843,25.7923638 65.0778486,25.751129 64.7774563,25.751129 C64.2410414,25.751129 63.9191925,25.957303 63.9191925,26.3284162 C63.9191925,26.6789119 64.2410414,26.8644685 64.6487167,26.8644685 C65.056392,26.8644685 65.63572,26.5552075 65.63572,26.1016248 L65.63572,25.8954508 Z" id="Shape"></path>
            <path d="M68.0388585,27.4211382 L67.1805948,27.4211382 L67.1805948,23.8337111 L68.0388585,23.8337111 L68.0388585,24.3903808 C68.274881,23.9986503 68.7254695,23.7512415 69.1975146,23.7512415 C70.0343217,23.7512415 70.5278234,24.2872938 70.5278234,25.1326071 L70.5278234,27.4211382 L69.6695596,27.4211382 L69.6695596,25.3800159 C69.6695596,24.8233462 69.3691673,24.4934678 68.8756657,24.4934678 C68.382164,24.4934678 68.0388585,24.8233462 68.0388585,25.3800159 L68.0388585,27.4211382 Z" id="Shape"></path>
            <path d="M73.0167882,27.5036078 C71.9439585,27.5036078 71.0642382,26.6582945 71.0642382,25.6274247 C71.0642382,24.5965548 71.9439585,23.7512415 73.0167882,23.7512415 C73.5961163,23.7306241 74.1539877,23.9574155 74.5187498,24.3697634 L73.9823349,24.9264332 C73.7463124,24.6377896 73.4030069,24.4728504 73.0167882,24.4728504 C72.394547,24.4728504 71.9439585,24.9882853 71.9439585,25.6274247 C71.9439585,26.266564 72.394547,26.7819989 73.0597014,26.7819989 C73.4244635,26.7613815 73.7892256,26.5964423 74.0252481,26.3284162 L74.5402064,26.8232337 C74.1754443,27.2768164 73.6175728,27.5242252 73.0167882,27.5036078" id="Shape"></path>
            <path d="M76.7716921,26.8438511 C77.1579108,26.8438511 77.5226729,26.6789119 77.780152,26.4108858 L78.2736537,26.8438511 C77.9088916,27.2974338 77.3510201,27.5448426 76.7502355,27.5242252 C75.720319,27.5448426 74.8620553,26.7613815 74.8405987,25.7717464 C74.8405987,25.7305116 74.8405987,25.6892769 74.8405987,25.6480421 C74.8405987,24.6171722 75.5915795,23.7718589 76.6644091,23.7718589 C77.7372388,23.7718589 78.4453064,24.6790244 78.4453064,25.7098942 C78.4453064,25.7923638 78.4453064,25.854216 78.4238498,25.9366856 L75.6774058,25.9366856 C75.7417756,26.4521205 76.1923641,26.8644685 76.7716921,26.8438511 Z M77.5870427,25.3800159 C77.5226729,24.8439636 77.200824,24.4316156 76.6429526,24.4316156 C76.0850811,24.4316156 75.7417756,24.8233462 75.6774058,25.3800159 L77.5870427,25.3800159 Z" id="Shape"></path>
            <path d="M79.9687246,27.4211382 L79.1104608,27.4211382 L79.1104608,23.8337111 L79.9687246,23.8337111 L79.9687246,24.6377896 C80.2047471,24.1017373 80.633879,23.7306241 81.2990334,23.7512415 L81.2990334,24.6171722 L81.2561202,24.6171722 C80.5051394,24.6171722 79.9901812,25.0913723 79.9901812,26.0397726 L79.9687246,27.4211382 Z" id="Shape"></path>
            <path d="M86.2555065,27.5036078 C84.8393713,27.4829904 83.7021719,26.369651 83.7236285,25.0089027 C83.7450851,23.6481545 84.9037411,22.5554325 86.2984197,22.5760499 C87.0279439,22.5554325 87.7145549,22.8234586 88.2295131,23.3182762 L87.6716417,23.9367981 C87.3068796,23.5656849 86.813378,23.3388936 86.2769631,23.3388936 C85.332873,23.3388936 84.646262,24.0811199 84.646262,25.0295201 C84.646262,25.9779204 85.332873,26.7201467 86.2769631,26.7201467 C86.8777477,26.7201467 87.285423,26.4727379 87.6930983,26.1016248 L88.2509697,26.6376771 C87.7360115,27.1943468 87.0064873,27.5036078 86.2340499,27.4829904" id="Shape"></path>
            <path d="M90.5897384,26.8438511 C90.9759571,26.8438511 91.3407192,26.6789119 91.5981983,26.4108858 L92.0917,26.8438511 C91.7269379,27.2974338 91.1690665,27.5448426 90.5682818,27.5242252 C89.5383653,27.5448426 88.6801016,26.7613815 88.658645,25.7717464 C88.658645,25.7305116 88.658645,25.6892769 88.658645,25.6480421 C88.658645,24.6171722 89.4096258,23.7718589 90.4824555,23.7718589 C91.5552851,23.7718589 92.2848093,24.6790244 92.2848093,25.7098942 C92.2848093,25.7923638 92.2848093,25.854216 92.2633527,25.9366856 L89.4954522,25.9366856 C89.5598219,26.4521205 90.0104104,26.8644685 90.5897384,26.8438511 Z M91.405089,25.3800159 C91.3407192,24.8439636 91.0188703,24.4316156 90.4609989,24.4316156 C89.9031274,24.4316156 89.5598219,24.8233462 89.4954522,25.3800159 L91.405089,25.3800159 Z" id="Shape"></path>
            <path d="M93.7438577,27.4211382 L92.885594,27.4211382 L92.885594,23.8337111 L93.7438577,23.8337111 L93.7438577,24.3903808 C93.9798802,23.9986503 94.4304687,23.7512415 94.9025138,23.7512415 C95.7393209,23.7512415 96.2328226,24.2872938 96.2328226,25.1326071 L96.2328226,27.4211382 L95.3745588,27.4211382 L95.3745588,25.3800159 C95.3745588,24.8233462 95.0956231,24.4934678 94.5806649,24.4934678 C94.0657066,24.4934678 93.7438577,24.8233462 93.7438577,25.3800159 L93.7438577,27.4211382 Z" id="Shape"></path>
            <path d="M98.056633,26.3077988 C98.0137198,26.5139727 98.163916,26.7201467 98.3999385,26.7613815 C98.4428517,26.7613815 98.4857649,26.7613815 98.5072215,26.7613815 C98.7003308,26.7613815 98.8719836,26.7201467 99.0436363,26.6376771 L99.0436363,27.3180512 C98.8076138,27.4417556 98.5501347,27.5036078 98.271199,27.5036078 C97.6489577,27.5036078 97.1983693,27.2355816 97.1983693,26.4521205 L97.1983693,24.55532 L96.7263242,24.55532 L96.7263242,23.8543285 L97.1983693,23.8543285 L97.1983693,22.8646934 L98.056633,22.8646934 L98.056633,23.8543285 L99.0650929,23.8543285 L99.0650929,24.55532 L98.056633,24.55532 L98.056633,26.3077988 Z" id="Shape"></path>
            <path d="M100.545598,27.4211382 L99.6873341,27.4211382 L99.6873341,23.8337111 L100.545598,23.8337111 L100.545598,24.6377896 C100.78162,24.1017373 101.210752,23.7306241 101.875907,23.7512415 L101.875907,24.6171722 L101.832994,24.6171722 C101.082013,24.6171722 100.567054,25.0913723 100.567054,26.0397726 L100.545598,27.4211382 Z" id="Shape"></path>
            <path d="M104.064479,26.8438511 C104.450698,26.8438511 104.81546,26.6789119 105.072939,26.4108858 L105.566441,26.8438511 C105.201679,27.2974338 104.643807,27.5448426 104.043023,27.5242252 C103.013106,27.5448426 102.154842,26.7613815 102.133386,25.7717464 C102.133386,25.7305116 102.133386,25.6892769 102.133386,25.6480421 C102.133386,24.6171722 102.884367,23.7718589 103.957196,23.7718589 C105.030026,23.7718589 105.75955,24.6790244 105.75955,25.7098942 C105.75955,25.7923638 105.75955,25.854216 105.738094,25.9366856 L102.99165,25.9366856 C103.056019,26.4521205 103.506608,26.8644685 104.064479,26.8438511 Z M104.901286,25.3800159 C104.836917,24.8439636 104.515068,24.4316156 103.957196,24.4316156 C103.399325,24.4316156 103.056019,24.8233462 102.99165,25.3800159 L104.901286,25.3800159 Z" id="Shape"></path>
            <polygon id="Shape" points="4.09820939 31.0910349 5.04229951 31.0910349 2.98246652 35.8948884 2.21002915 35.8948884 0.150196156 31.0910349 1.11574287 31.0910349 2.61770443 34.7609316"></polygon>
            <path d="M5.53580116,30.9260957 L6.45843469,30.9260957 L6.45843469,31.7095568 L5.53580116,31.7095568 L5.53580116,30.9260957 Z M5.57871435,32.2662265 L6.4369781,32.2662265 L6.4369781,35.8536536 L5.57871435,35.8536536 L5.57871435,32.2662265 Z" id="Shape"></path>
            <path d="M8.96885615,35.9361232 C7.89602647,35.9361232 7.01630613,35.09081 7.01630613,34.0599401 C7.01630613,33.0290702 7.89602647,32.183757 8.96885615,32.183757 C9.54818418,32.1631396 10.1060556,32.3899309 10.4708177,32.8022789 L9.93440286,33.3589486 C9.69838033,33.070305 9.35507484,32.9053659 8.96885615,32.9053659 C8.34661493,32.9053659 7.89602647,33.4208008 7.89602647,34.0599401 C7.89602647,34.6990794 8.34661493,35.2145143 9.01176934,35.2145143 C9.37653143,35.1938969 9.74129352,35.0289578 9.97731605,34.7609316 L10.4922743,35.2557491 C10.1275122,35.7093319 9.56964077,35.9567406 8.96885615,35.9361232" id="Shape"></path>
            <path d="M12.251715,34.7403142 C12.2088018,34.9464882 12.3589979,35.1526621 12.5950205,35.1938969 C12.6379337,35.1938969 12.6808469,35.1938969 12.7023034,35.1938969 C12.8954128,35.1938969 13.0670655,35.1526621 13.2387183,35.0701926 L13.2387183,35.7505667 C13.0026958,35.874271 12.7452166,35.9361232 12.4662809,35.9361232 C11.8440397,35.9361232 11.3934512,35.6680971 11.3934512,34.884636 L11.3934512,32.9878354 L10.9214062,32.9878354 L10.9214062,32.2868439 L11.3934512,32.2868439 L11.3934512,31.2972089 L12.251715,31.2972089 L12.251715,32.2868439 L13.2601749,32.2868439 L13.2601749,32.9878354 L12.251715,32.9878354 L12.251715,34.7403142 Z" id="Shape"></path>
            <path d="M15.5560304,35.9361232 C14.4832007,35.9567406 13.6034804,35.1526621 13.5820238,34.1217923 C13.5820238,34.1011749 13.5820238,34.1011749 13.5820238,34.0805575 C13.5391106,33.0290702 14.4188309,32.1425222 15.5131172,32.1012874 C16.6074035,32.0600526 17.530037,32.9053659 17.5729502,33.9568531 C17.6158634,35.0083404 16.7361431,35.8948884 15.6418568,35.9361232 C15.6204002,35.9361232 15.577487,35.9361232 15.5560304,35.9361232 M15.5560304,32.9053659 C14.8694194,32.9053659 14.4402875,33.4208008 14.4402875,34.0599401 C14.4188309,34.678462 14.9123326,35.1938969 15.5560304,35.2145143 L15.577487,35.2145143 C16.1997282,35.2351317 16.7146865,34.7609316 16.7146865,34.1630271 C16.7146865,34.1217923 16.7146865,34.1011749 16.7146865,34.0599401 C16.7361431,33.4414182 16.2426414,32.9259833 15.5989436,32.9053659 C15.577487,32.9053659 15.577487,32.9053659 15.5560304,32.9053659" id="Shape"></path>
            <path d="M19.0319986,35.8536536 L18.1737348,35.8536536 L18.1737348,32.2662265 L19.0319986,32.2662265 L19.0319986,33.070305 C19.2680211,32.5342527 19.697153,32.1631396 20.3623074,32.183757 L20.3623074,33.0496876 L20.3193942,33.0496876 C19.5684134,33.0496876 19.0534552,33.5238878 19.0534552,34.472288 L19.0534552,35.8330362 L19.0319986,35.8536536 Z" id="Shape"></path>
            <path d="M20.855809,30.9260957 L21.7784426,30.9260957 L21.7784426,31.7095568 L20.855809,31.7095568 L20.855809,30.9260957 Z M20.8987222,32.2662265 L21.756986,32.2662265 L21.756986,35.8536536 L20.8987222,35.8536536 L20.8987222,32.2662265 Z" id="Shape"></path>
            <path d="M24.8681921,35.8536536 L24.8681921,35.4206883 C24.5677997,35.7711841 24.1386679,35.9567406 23.6666228,35.9361232 C22.9585552,35.9361232 22.336314,35.5443927 22.336314,34.8227838 C22.336314,34.0393227 22.9800118,33.6682095 23.8597322,33.6682095 C24.2030376,33.6682095 24.5463431,33.7094443 24.8896486,33.8125313 L24.8896486,33.7300617 C24.8896486,33.2352442 24.5677997,32.967218 23.9670151,32.967218 C23.602253,32.967218 23.2374909,33.0496876 22.8941854,33.1940094 L22.6581629,32.5342527 C23.1087514,32.3280787 23.5807964,32.2249917 24.0742981,32.2249917 C25.1685844,32.2249917 25.7264558,32.7816615 25.7264558,33.7506791 L25.7264558,35.874271 L24.8681921,35.874271 L24.8681921,35.8536536 Z M24.8896486,34.3279663 C24.6107129,34.2248793 24.3317772,34.1836445 24.0313849,34.1836445 C23.4949701,34.1836445 23.1731212,34.3898184 23.1731212,34.7609316 C23.1731212,35.09081 23.4949701,35.2969839 23.9026453,35.2969839 C24.3103206,35.2969839 24.8896486,34.987723 24.8896486,34.5341402 L24.8896486,34.3279663 Z" id="Shape"></path>
            <path d="M33.2791768,35.8536536 L32.3565432,35.8536536 L31.8630416,34.6990794 L29.5242729,34.6990794 L29.0093146,35.8536536 L28.1081377,35.8536536 L30.2967102,31.0498001 L31.1120608,31.0498001 L33.2791768,35.8536536 Z M30.6829289,32.0600526 L29.8246652,33.9568531 L31.5411927,33.9568531 L30.6829289,32.0600526 Z" id="Shape"></path>
            <path d="M36.0470773,32.2662265 L36.9053411,32.2662265 L36.9053411,35.8536536 L36.0470773,35.8536536 L36.0470773,35.2969839 C35.8110548,35.6887145 35.3604664,35.9361232 34.8884213,35.9361232 C34.0516141,35.9361232 33.5581125,35.4000709 33.5581125,34.5547576 L33.5581125,32.2662265 L34.4163762,32.2662265 L34.4163762,34.3073489 C34.4163762,34.8640186 34.7167685,35.1938969 35.2102702,35.1938969 C35.7037719,35.1938969 36.0470773,34.8640186 36.0470773,34.3073489 L36.0470773,32.2662265 Z" id="Shape"></path>
            <path d="M39.0080873,35.9361232 C38.4287592,35.9361232 37.8708878,35.7505667 37.4202993,35.4000709 L37.806518,34.8434012 C38.1498235,35.1114273 38.5789554,35.2557491 39.0295439,35.2763665 C39.394306,35.2763665 39.6088719,35.1320447 39.6088719,34.884636 C39.6088719,34.5959924 39.2011966,34.5135228 38.7720647,34.3898184 C38.3429329,34.2661141 37.6134087,34.0187053 37.6134087,33.3383312 C37.6134087,32.6579571 38.1927367,32.2456091 38.9437175,32.2456091 C39.4372191,32.2662265 39.9092642,32.3899309 40.3169395,32.6579571 L39.973634,33.2352442 C39.6517851,33.0290702 39.3084796,32.9053659 38.9222609,32.8847485 C38.5789554,32.8847485 38.4073027,33.0290702 38.4073027,33.2352442 C38.4073027,33.5032704 38.8149779,33.6063574 39.2441098,33.7300617 C39.6732417,33.8537661 40.4027659,34.1217923 40.4027659,34.781549 C40.4027659,35.5443927 39.8019812,35.9155058 39.0080873,35.9361232" id="Shape"></path>
            <path d="M42.0763802,34.7403142 C42.033467,34.9464882 42.1836631,35.1526621 42.3982291,35.1938969 C42.4411423,35.1938969 42.4840554,35.1938969 42.5484252,35.1938969 C42.7415346,35.1938969 42.9131873,35.1526621 43.0848401,35.0701926 L43.0848401,35.7505667 C42.8488175,35.874271 42.5913384,35.9361232 42.3124027,35.9361232 C41.6901615,35.9361232 41.239573,35.6680971 41.239573,34.884636 L41.239573,32.9878354 L40.767528,32.9878354 L40.767528,32.2868439 L41.239573,32.2868439 L41.239573,31.2972089 L42.0978368,31.2972089 L42.0978368,32.2868439 L43.1062967,32.2868439 L43.1062967,32.9878354 L42.0978368,32.9878354 L42.0978368,34.7609316 L42.0763802,34.7403142 Z" id="Shape"></path>
            <path d="M44.5438884,35.8536536 L43.6856247,35.8536536 L43.6856247,32.2662265 L44.5438884,32.2662265 L44.5438884,33.070305 C44.779911,32.5342527 45.2090428,32.1631396 45.8741972,32.183757 L45.8741972,33.0496876 L45.8312841,33.0496876 C45.0803033,33.0496876 44.565345,33.5238878 44.565345,34.472288 L44.565345,35.8330362 L44.5438884,35.8536536 Z" id="Shape"></path>
            <path d="M48.5991846,35.8536536 L48.5991846,35.4206883 C48.2987923,35.7711841 47.8696605,35.9567406 47.3976154,35.9361232 C46.6895478,35.9361232 46.0673066,35.5443927 46.0673066,34.8227838 C46.0673066,34.0393227 46.7110044,33.6682095 47.5907247,33.6682095 C47.9340302,33.6682095 48.2773357,33.7094443 48.6206412,33.8125313 L48.6206412,33.7300617 C48.6206412,33.2352442 48.2987923,32.967218 47.6980077,32.967218 C47.3332456,32.967218 46.9684835,33.0496876 46.625178,33.1940094 L46.3891555,32.5342527 C46.839744,32.3280787 47.311789,32.2249917 47.8052907,32.2249917 C48.899577,32.2249917 49.4574484,32.7816615 49.4574484,33.7506791 L49.4574484,35.874271 L48.5991846,35.874271 L48.5991846,35.8536536 Z M48.6206412,34.3279663 C48.3417055,34.2248793 48.0627698,34.1836445 47.7623775,34.1836445 C47.2259626,34.1836445 46.9041137,34.3898184 46.9041137,34.7609316 C46.9041137,35.09081 47.2259626,35.2969839 47.6336379,35.2969839 C48.0413132,35.2969839 48.6206412,34.987723 48.6206412,34.5341402 L48.6206412,34.3279663 Z" id="Shape"></path>
            <rect id="Rectangle-path" x="50.2727989" y="30.8848609" width="1" height="4.96879271"></rect>
            <path d="M51.9035001,30.9260957 L52.8261336,30.9260957 L52.8261336,31.7095568 L51.9035001,31.7095568 L51.9035001,30.9260957 Z M51.9464133,32.2662265 L52.804677,32.2662265 L52.804677,35.8536536 L51.9464133,35.8536536 L51.9464133,32.2662265 Z" id="Shape"></path>
            <path d="M55.9373397,35.8536536 L55.9373397,35.4206883 C55.6369474,35.7505667 55.1863589,35.9567406 54.7357704,35.9361232 C54.0277028,35.9361232 53.4054616,35.5443927 53.4054616,34.8227838 C53.4054616,34.0393227 54.0491594,33.6682095 54.9288798,33.6682095 C55.2721853,33.6682095 55.6154908,33.7094443 55.9587963,33.8125313 L55.9587963,33.7300617 C55.9587963,33.2352442 55.6369474,32.967218 55.0361627,32.967218 C54.6714006,32.967218 54.3066386,33.0496876 53.9633331,33.1940094 L53.7273105,32.5342527 C54.177899,32.3280787 54.6499441,32.2249917 55.1434457,32.2249917 C56.237732,32.2249917 56.7741468,32.7816615 56.7741468,33.7506791 L56.7741468,35.874271 L55.9158831,35.874271 L55.9373397,35.8536536 Z M55.9587963,34.3279663 C55.6798605,34.2248793 55.4009248,34.1836445 55.1005325,34.1836445 C54.5641177,34.1836445 54.2422688,34.3898184 54.2422688,34.7609316 C54.2422688,35.09081 54.5641177,35.2969839 54.971793,35.2969839 C55.3794682,35.2969839 55.9587963,34.987723 55.9587963,34.5341402 L55.9587963,34.3279663 Z" id="Shape"></path>
          </g>
          <g id="Group-4">
            <polygon id="SVGID_1_" points="16.1276596 14.4635926 24.2765957 11.1485794 16.2553191 7.77022202"></polygon>
            <polygon id="SVGID_3_" points="8.42553191 24.6408943 12.9148936 22.5294209 15.7234043 14.991461 15.7234043 14.991461 15.8297872 8.42477876"></polygon>
            <polygon id="SVGID_5_" points="20.6808511 0 25.0425532 11.0007763 29.9574468 12.0776277 37.106383 2.38596491"></polygon>
            <polygon id="SVGID_7_" points="20.6808511 42.8417948 22.4255319 46.9169384 36.4893617 47.7192982 38.1489362 40.202453"></polygon>
            <polygon id="SVGID_9_" points="1.63829787 32.2844279 21.8510638 46.6213321 18.3829787 38.5343891 8 25.3587952"></polygon>
            <polygon id="SVGID_11_" points="0.723404255 9.94503959 16.0851064 7.24235367 24.5319149 10.8107437 20.2553191 0.0422294675"></polygon>
            <polygon id="SVGID_13_" points="0.0212765957 10.4729079 0.0212765957 10.6840553 1.4893617 31.8410185 7.85106383 24.9365005 15.7234043 7.72799255"></polygon>
            <polygon id="SVGID_15_" points="40.4680851 28.3148579 44.6382979 28.3148579 46.5106383 24.6831237 40.4893617 20.3968328"></polygon>
            <polygon id="SVGID_17_" points="38.6170213 40.0335352 36.9574468 47.4659214 44.106383 34.417016 44.4893617 29.2227915"></polygon>
            <polygon id="SVGID_19_" points="40.2765957 28.7160379 30.4468085 39.0833721 38.2978723 39.7590436 44.2978723 28.7160379"></polygon>
            <polygon id="SVGID_21_" points="30.3191489 12.2465456 40.4893617 19.8900792 40.4893617 19.9111939 46.7021277 24.3241733 47.4680851 22.8461419 37.4468085 2.63934172"></polygon>
            <polygon id="SVGID_23_" points="8.34042553 25.1265331 18.3191489 37.7742587 12.9361702 22.9517156"></polygon>
            <polygon id="SVGID_25_" points="18.8723404 38.6610775 20.5106383 42.4617295 36.7021277 40.0124204 30.0851064 39.4634374 30.0851064 39.4634374"></polygon>
          </g>
        </g>
      </g>
    </g>
  </g>
</svg>
