<?xml version="1.0" encoding="UTF-8"?>
<svg xmlns="http://www.w3.org/2000/svg" xmlns:xlink="http://www.w3.org/1999/xlink" width="200px" height="134px" viewBox="0 0 200 134">
  <!-- Generator: Sketch 51.2 (57519) - http://www.bohemiancoding.com/sketch -->
  <title>RMIT</title>
  <desc>Created with Sketch.</desc>
  <defs></defs>
  <g id="Slideshow-(Large)" stroke="none" stroke-width="1" fill="none" fill-rule="evenodd">
    <g id="Cliemt-logos" transform="translate(-266.000000, -340.000000)">
      <g id="RMIT" transform="translate(266.000000, 340.000000)">
        <rect id="Rectangle" fill="#FFFFFF" x="0" y="0" width="200" height="134"></rect>
        <g id="RMIT_University" opacity="0.35" transform="translate(30.000000, 45.000000)" fill="#1A1919">
          <polyline id="Fill-2" points="110.457021 3.15521277 114.190106 3.15521277 114.190106 1.79914894 101.187234 1.79914894 101.187234 3.15521277 104.919574 3.15521277 104.919574 29.3389362 101.187234 29.3389362 101.187234 30.695 114.190106 30.695 114.190106 29.3389362 110.457021 29.3389362 110.457021 3.15521277"></polyline>
          <path d="M134.125213,30.695 L134.125213,29.3389362 L130.132234,29.3389362 L130.132234,2.88042553 C136.23117,2.57808511 137.267766,3.87159574 138.046702,9.40829787 L139.387872,9.40829787 L138.911277,1.79914894 L115.773298,1.79914894 L115.297447,9.40829787 L116.681809,9.40829787 C117.460745,3.87159574 118.496596,2.57808511 124.595532,2.88042553 L124.595532,29.3389362 L120.602553,29.3389362 L120.602553,30.695 L134.125213,30.695" id="Fill-3"></path>
          <path d="M98.7096809,3.1306383 L98.7096809,1.77457447 L88.0443617,1.77457447 L81.7741489,21.5354255 L75.7206383,1.77457447 L65.1141489,1.77457447 L65.1141489,3.1306383 L68.8457447,3.1306383 L68.8457447,29.3039362 L64.8155319,29.3017021 C61.0556383,29.3910638 61.0064894,26.1941489 61.0117021,25.531383 C61.0675532,18.4807447 59.5029787,15.9317021 52.7554255,14.893617 L52.7554255,14.8064894 C56.7781915,14.3738298 61.9254255,13.2359574 61.9254255,8.34787234 C61.9254255,2.33531915 56.3023404,1.77308511 51.5870213,1.77308511 L37.6458511,1.77308511 L37.6458511,3.12914894 L41.3789362,3.12914894 L41.3789362,29.3128723 L37.6458511,29.3128723 L37.6458511,30.6681915 L50.6487234,30.6681915 L50.6487234,29.3128723 L46.9156383,29.3128723 L46.9156383,15.5139362 C49.3060638,15.4111702 52.0204255,16.0329787 53.2312766,17.0710638 C54.3557447,18.022766 54.9611702,20.9791489 54.9611702,24.57 C54.9611702,28.982234 57.2525532,30.657766 61.6223404,30.657766 C62.876383,30.657766 74.148617,30.6592553 74.148617,30.6592553 L74.148617,29.3039362 L70.5041489,29.3039362 L70.5041489,3.59159574 L70.5905319,3.59159574 L79.1953191,30.6592553 L80.6653191,30.6592553 L89.3140426,3.59159574 L89.4428723,3.59159574 L89.4428723,29.3039362 L85.7120213,29.3039362 L85.7120213,30.6592553 L98.7096809,30.6592553 L98.7096809,29.3039362 L94.9780851,29.3039362 L94.9780851,3.1306383 L98.7096809,3.1306383 Z M46.9156383,14.1578723 L46.9156383,3.12914894 L50.6792553,3.12914894 C54.5292553,3.12914894 55.9560638,4.10840426 55.9560638,8.95329787 C55.9560638,12.847234 54.3557447,14.1578723 50.4625532,14.1578723 L46.9156383,14.1578723 Z" id="Fill-4"></path>
          <path d="M37.7612766,37.5006383 L43.2845745,37.5006383 L43.2845745,38.0010638 L41.8830851,38.0010638 L41.8830851,46.078617 C41.8830851,47.6141489 42.2665957,48.3811702 44.1521277,48.3982979 C45.4709574,48.4146809 46.2052128,47.7809574 46.5552128,47.2969149 C46.9394681,46.8791489 46.9394681,45.5945745 46.9394681,44.2258511 L46.9394681,38.6191489 C46.9394681,38.2847872 46.6721277,38.0010638 46.1880851,38.0010638 L45.4374468,38.0010638 L45.4374468,37.5006383 L48.9582979,37.5006383 L48.9582979,38.0010638 L47.9574468,38.0010638 C47.5731915,38.0010638 47.4398936,38.2847872 47.4398936,38.6191489 L47.4398936,45.4776596 C47.4398936,46.3288298 47.373617,47.196383 46.7890426,47.8308511 C46.1717021,48.5152128 45.203617,48.8987234 43.3009574,48.8987234 C40.5642553,48.8987234 39.0793617,47.947766 39.0793617,45.2438298 L39.0793617,38.0010638 L37.7612766,38.0010638 L37.7612766,37.5006383" id="Fill-5"></path>
          <path d="M59.3860638,48.8987234 L59.0025532,48.8987234 L51.8595745,38.9691489 L51.8595745,47.53 C51.8595745,47.947766 52.0934043,48.1145745 52.5104255,48.1473404 L53.4621277,48.1473404 L53.4621277,48.6485106 L49.7901064,48.6485106 L49.7901064,48.1473404 L50.591383,48.1473404 C51.1588298,48.1145745 51.1923404,47.7638298 51.1923404,47.2797872 L51.1923404,39.0361702 C51.1923404,38.2185106 51.342766,38.0010638 50.3411702,38.0010638 L49.7901064,38.0010638 L49.7901064,37.5006383 L54.196383,37.5006383 L58.8856383,44.1096809 L58.8856383,38.4851064 C58.8856383,38.1514894 58.2012766,38.0010638 57.7842553,38.0010638 L57.3165957,38.0010638 L57.3165957,37.5006383 L60.8381915,37.5006383 L60.8381915,38.0010638 L60.1367021,38.0010638 C59.6526596,38.0010638 59.3860638,38.1514894 59.3860638,38.4851064 L59.3860638,48.8987234" id="Fill-6"></path>
          <polyline id="Fill-7" points="61.7869149 48.6485106 61.7869149 48.1473404 63.0215957 48.1473404 63.0215957 38.0010638 61.7869149 38.0010638 61.7869149 37.5006383 67.2268085 37.5006383 67.2268085 38.0010638 65.8253191 38.0010638 65.8253191 48.1473404 67.2268085 48.1473404 67.2268085 48.6485106 61.7869149 48.6485106"></polyline>
          <path d="M67.7756383,37.5006383 L72.9489362,37.5006383 L72.9489362,38.0010638 L71.6643617,38.0010638 L74.4509574,44.8603191 L76.703617,38.3689362 C76.7542553,38.2348936 76.687234,38.0010638 75.7526596,38.0010638 L75.1852128,38.0010638 L75.1852128,37.5006383 L78.6732979,37.5006383 L78.6732979,38.0010638 L77.9889362,38.0010638 C77.5882979,38.0010638 77.4214894,38.1015957 76.7870213,39.9208511 L73.6668085,48.8987234 L73.1492553,48.8987234 L68.7273404,38.0010638 L67.7756383,38.0010638 L67.7756383,37.5006383" id="Fill-8"></path>
          <path d="M79.3725532,48.6485106 L79.3725532,48.1473404 L80.707766,48.1473404 L80.707766,38.0010638 L79.5229787,38.0010638 L79.5229787,37.5006383 L88.6512766,37.5006383 L88.7510638,40.5046809 L88.183617,40.5046809 C87.4828723,38.6191489 86.748617,38.0010638 85.0797872,38.0010638 L83.5114894,38.0010638 L83.5114894,42.6575532 C85.1468085,42.6575532 85.4975532,42.1735106 85.8304255,40.6379787 L86.3814894,40.6379787 L86.3814894,45.3778723 L85.8304255,45.3778723 C85.5973404,43.7753191 85.1468085,43.241383 83.5114894,43.241383 L83.5114894,48.1473404 L85.1468085,48.1473404 C87.7330851,48.1473404 88.2007447,46.9297872 88.6512766,44.993617 L89.1688298,44.993617 L89.0682979,48.6485106 L79.3725532,48.6485106" id="Fill-9"></path>
          <path d="M90.3357447,48.6485106 L90.3357447,48.1473404 L91.6374468,48.1473404 L91.6374468,38.0010638 L90.302234,38.0010638 L90.302234,37.5006383 L96.9269149,37.5006383 C98.5957447,37.5006383 100.347979,38.2520213 100.347979,40.2045745 C100.347979,42.0402128 98.0282979,42.5741489 96.6268085,42.7238298 L96.6268085,42.7573404 C98.9464894,43.1914894 99.9145745,44.1096809 99.9145745,45.7114894 C99.9145745,47.0965957 99.9808511,47.6975532 100.214681,47.947766 C100.331596,48.0646809 100.665213,48.1979787 101.5,48.0140426 L101.599787,48.3647872 C101.065851,48.6485106 100.248191,48.8823404 99.647234,48.8823404 C97.6112766,48.8823404 96.9269149,47.9641489 96.8770213,45.3942553 C96.8435106,43.4081915 96.4935106,42.9747872 95.1582979,42.9747872 L94.4404255,42.9747872 L94.4404255,48.1473404 L95.8255319,48.1473404 L95.8255319,48.6485106 L90.3357447,48.6485106 Z M94.4404255,42.4237234 L95.1419149,42.4237234 C96.8271277,42.4237234 97.3111702,42.14 97.3111702,40.9723404 L97.3111702,39.3534043 C97.3111702,38.5521277 97.577766,38.0010638 95.6423404,38.0010638 L94.4404255,38.0010638 L94.4404255,42.4237234 Z" id="Fill-10"></path>
          <path d="M108.940106,37.5006383 L109.45766,37.5006383 L109.45766,40.4547872 L108.923723,40.4547872 C108.672766,39.0860638 107.487979,37.7515957 106.036596,37.7515957 C105.118404,37.7515957 103.83383,38.2847872 103.83383,39.3869149 C103.83383,40.371383 104.534574,40.6379787 105.352234,40.8219149 C106.203404,41.0051064 107.604894,41.3394681 108.37266,41.6730851 C109.374255,42.107234 110.191915,42.9911702 110.191915,44.9273404 C110.191915,46.8791489 109.007128,48.8987234 106.286809,48.8987234 C105.419255,48.8987234 104.685,48.6485106 103.984255,48.1145745 L103.133085,48.7482979 L102.532128,48.7482979 L102.532128,45.5111702 L103.133085,45.5111702 C103.583617,47.0467021 104.685,48.3982979 106.370213,48.3982979 C108.222979,48.3982979 109.023511,47.2135106 109.023511,46.1620213 C109.023511,44.7270213 107.404574,44.6101064 105.802766,44.1923404 C104.18383,43.7753191 102.565638,43.1080851 102.565638,40.5880851 C102.565638,38.6854255 104.167447,37.2504255 106.069362,37.2504255 C106.870638,37.2504255 107.638404,37.5676596 108.322766,37.9846809 L108.940106,37.5006383" id="Fill-11"></path>
          <polyline id="Fill-12" points="111.440745 48.6485106 111.440745 48.1473404 112.67617 48.1473404 112.67617 38.0010638 111.440745 38.0010638 111.440745 37.5006383 116.881383 37.5006383 116.881383 38.0010638 115.479149 38.0010638 115.479149 48.1473404 116.881383 48.1473404 116.881383 48.6485106 111.440745 48.6485106"></polyline>
          <path d="M117.813723,37.5006383 L127.96,37.5006383 L128.126809,41.1220213 L127.676277,41.1220213 C127.125957,39.1031915 126.574894,37.835 124.288723,38.0010638 L124.288723,48.1473404 L125.657447,48.1473404 L125.657447,48.6485106 L120.117021,48.6485106 L120.117021,48.1473404 L121.485,48.1473404 L121.485,38.0010638 C119.19883,37.835 118.648511,39.1031915 118.097447,41.1220213 L117.646915,41.1220213 L117.813723,37.5006383" id="Fill-13"></path>
          <path d="M128.459681,37.5006383 L133.78266,37.5006383 L133.78266,38.0010638 L132.531596,38.0010638 L135.201277,42.5235106 L137.320638,38.4352128 C137.454681,38.185 137.204468,38.0010638 136.853723,38.0010638 L135.869255,38.0010638 L135.869255,37.5006383 L139.390106,37.5006383 L139.390106,38.0010638 L138.772766,38.0010638 C138.305106,38.0010638 138.121915,38.0852128 137.687766,38.9192553 L135.485,43.2078723 L135.485,48.1473404 L136.953511,48.1473404 L136.953511,48.6485106 L131.279787,48.6485106 L131.279787,48.1473404 L132.682021,48.1473404 L132.682021,43.6256383 L129.47766,38.0010638 L128.459681,38.0010638 L128.459681,37.5006383" id="Fill-14"></path>
          <path d="M16.6101064,0.33212766 L12.3818085,0.33212766 L12.3818085,3.75244681 L5.35574468,3.75244681 L5.35574468,10.9028723 L0.07,10.9028723 L0.07,21.4728723 L5.41755319,21.4728723 L5.41755319,28.4371277 L12.3818085,28.4371277 L12.3818085,31.9810638 L16.1029787,31.9743617 C24.8075532,31.9743617 32.4651064,24.955 32.4651064,16.1878723 C32.4651064,7.48329787 25.3146809,0.33212766 16.6101064,0.33212766" id="Fill-15"></path>
        </g>
      </g>
    </g>
  </g>
</svg>
